<svg width="24" height="24" viewBox="0 0 24 24" fill="none" xmlns="http://www.w3.org/2000/svg">
<path d="M8.00024 16.0011H6.00024C5.46981 16.0011 4.9611 15.7904 4.58603 15.4153C4.21096 15.0403 4.00024 14.5316 4.00024 14.0011V6.00113C4.00024 5.4707 4.21096 4.96199 4.58603 4.58692C4.9611 4.21184 5.46981 4.00113 6.00024 4.00113H14.0002C14.5307 4.00113 15.0394 4.21184 15.4145 4.58692C15.7895 4.96199 16.0002 5.4707 16.0002 6.00113V8.00113M10.0002 20.0011H18.0002C18.5307 20.0011 19.0394 19.7904 19.4145 19.4153C19.7895 19.0403 20.0002 18.5316 20.0002 18.0011V10.0011C20.0002 9.4707 19.7895 8.96199 19.4145 8.58692C19.0394 8.21184 18.5307 8.00113 18.0002 8.00113H10.0002C9.46981 8.00113 8.9611 8.21184 8.58603 8.58692C8.21096 8.96199 8.00024 9.4707 8.00024 10.0011V18.0011C8.00024 18.5316 8.21096 19.0403 8.58603 19.4153C8.9611 19.7904 9.46981 20.0011 10.0002 20.0011Z" stroke="#868686" stroke-width="2" stroke-linecap="round" stroke-linejoin="round"/>
</svg>
